<?xml version="1.0" encoding="UTF-8"?>
<!-- Generated by Pixelmator Pro 3.5 -->
<svg width="830" height="222" viewBox="0 0 830 222" xmlns="http://www.w3.org/2000/svg">
    <g id="g1">
        <path id="path1" fill="#ffffff" fill-rule="evenodd" stroke="none" d="M 0 222 L 790 222 L 830 0 L 40 0 Z"/>
        <path id="path2" fill="#f6bcb7" fill-rule="evenodd" stroke="none" d="M 286.085938 222 L 309.047974 94.560547 L 309.506958 94.560547 L 327.651001 193 L 349.731079 193 L 384.505859 0 L 830 0 L 790 222 L 286.085938 222 Z"/>
        <path id="BAINSIGHT" fill="#ffffff" fill-rule="evenodd" stroke="none" d="M 723.560181 193 L 749.088135 51.319946 L 721.94812 51.319946 L 725.926514 29.23999 L 798.666626 29.23999 L 794.688232 51.319946 L 772.548218 51.319946 L 747.020264 193 Z"/>
        <path id="path3" fill="#ffffff" fill-rule="evenodd" stroke="none" d="M 609.170166 193 L 638.676514 29.23999 L 662.136597 29.23999 L 649.496948 99.390015 L 678.476929 99.390015 L 691.116577 29.23999 L 714.576538 29.23999 L 685.07019 193 L 661.610229 193 L 674.747192 120.089966 L 645.767212 120.089966 L 632.630249 193 Z"/>
        <path id="path4" fill="#ffffff" fill-rule="evenodd" stroke="none" d="M 532.35437 67.880005 C 533.542358 61.286621 535.742188 55.460083 538.953979 50.400024 C 542.165649 45.339966 545.992065 41.123291 550.433228 37.75 C 554.693359 34.530029 559.313721 32.07666 564.294312 30.390015 C 569.274902 28.703369 574.141846 27.859985 578.895264 27.859985 C 583.64856 27.859985 588.211548 28.703369 592.584351 30.390015 C 596.957153 32.07666 600.77002 34.530029 604.023193 37.75 C 607.095459 41.123291 609.325684 45.339966 610.713989 50.400024 C 612.102173 55.460083 612.202393 61.286621 611.014404 67.880005 L 609.522461 76.160034 L 586.0625 76.160034 L 587.554443 67.880005 C 588.57666 62.206665 587.757813 58.02832 585.0979 55.344971 C 582.43811 52.661621 578.961548 51.319946 574.668213 51.319946 C 570.374878 51.319946 566.414795 52.661621 562.787964 55.344971 C 559.161133 58.02832 556.83667 62.206665 555.814453 67.880005 L 540.232422 154.359985 C 539.210205 160.033325 540.029053 164.21167 542.688843 166.89502 C 545.348633 169.578369 548.825317 170.920044 553.118652 170.920044 C 557.411987 170.920044 561.371948 169.578369 564.998779 166.89502 C 568.625732 164.21167 570.950195 160.033325 571.972412 154.359985 L 577.525513 123.540039 L 558.895508 123.540039 L 562.625366 102.839966 L 604.715332 102.839966 L 595.432373 154.359985 C 594.189087 161.26001 591.975464 167.16333 588.791504 172.069946 C 585.6073 176.976685 581.885132 181.040039 577.625 184.26001 C 573.183838 187.633301 568.473022 190.16333 563.492554 191.849976 C 558.511841 193.536621 553.644897 194.380005 548.891602 194.380005 C 544.138184 194.380005 539.575195 193.536621 535.202515 191.849976 C 530.82959 190.16333 527.107178 187.633301 524.035034 184.26001 C 520.781738 181.040039 518.447266 176.976685 517.031494 172.069946 C 515.615479 167.16333 515.529053 161.26001 516.772339 154.359985 Z"/>
        <path id="path5" fill="#ffffff" fill-rule="evenodd" stroke="none" d="M 464.960205 193 L 494.466553 29.23999 L 517.926514 29.23999 L 488.420166 193 Z"/>
        <path id="path6" fill="#ffffff" fill-rule="evenodd" stroke="none" d="M 467.801025 76.390015 L 444.341064 76.390015 L 445.294189 71.099976 C 446.261108 65.733276 445.831909 61.094971 444.00647 57.185059 C 442.180908 53.275024 438.278198 51.319946 432.298218 51.319946 C 429.078125 51.319946 426.361084 51.93335 424.146606 53.160034 C 421.932251 54.386719 420.046021 55.920044 418.487793 57.76001 C 416.901978 59.753296 415.651123 62.015015 414.735229 64.545044 C 413.819458 67.075073 413.112915 69.719971 412.615601 72.47998 C 412.0354 75.700073 411.66687 78.383301 411.510132 80.530029 C 411.353271 82.676636 411.582886 84.593384 412.199097 86.280029 C 412.815186 87.966675 413.894409 89.42334 415.436646 90.650024 C 416.979004 91.876709 419.172974 93.103271 422.018677 94.329956 L 438.673828 101.459961 C 443.528076 103.453369 447.323486 105.791626 450.059937 108.474976 C 452.796509 111.158325 454.766968 114.263306 455.971558 117.790039 C 456.995239 121.469971 457.392334 125.648315 457.163086 130.324951 C 456.933716 135.001709 456.280273 140.329956 455.202759 146.310059 C 453.959473 153.210083 452.116089 159.611694 449.672485 165.515015 C 447.22876 171.418335 444.100708 176.439941 440.287964 180.579956 C 436.294434 184.873413 431.469971 188.246704 425.814697 190.699951 C 420.159302 193.15332 413.574951 194.380005 406.061523 194.380005 C 400.388184 194.380005 395.277832 193.383301 390.730225 191.390015 C 386.182861 189.396606 382.463379 186.636719 379.572144 183.109985 C 376.680908 179.583374 374.621704 175.481689 373.394409 170.805054 C 372.166992 166.128296 372.050537 161.030029 373.045166 155.51001 L 374.619873 146.77002 L 398.079956 146.77002 L 396.753906 154.130005 C 395.980225 158.42334 396.547729 162.294922 398.455933 165.744995 C 400.36438 169.195068 404.308594 170.920044 410.288574 170.920044 C 414.275269 170.920044 417.483887 170.344971 419.914429 169.194946 C 422.344849 168.045044 424.366821 166.396729 425.980347 164.25 C 427.593872 162.103271 428.785034 159.535034 429.553711 156.545044 C 430.322388 153.554932 431.03833 150.219971 431.701416 146.540039 C 432.474976 142.246704 432.957031 138.719971 433.147705 135.959961 C 433.338379 133.199951 433.12561 130.976685 432.509521 129.290039 C 431.740112 127.603271 430.570435 126.223389 429.000488 125.150024 C 427.43042 124.07666 425.299438 122.926636 422.607056 121.699951 L 407.060303 114.800049 C 397.686279 110.660034 391.888916 105.178345 389.668457 98.35498 C 387.447754 91.531616 387.263062 82.983398 389.114014 72.709961 C 390.219116 66.57666 392.112427 60.75 394.793701 55.22998 C 397.474854 49.709961 400.861328 44.956665 404.953003 40.969971 C 408.891357 36.983276 413.566284 33.801636 418.977783 31.425049 C 424.389526 29.04834 430.545166 27.859985 437.44519 27.859985 C 443.271973 27.859985 448.406738 28.93335 452.849976 31.079956 C 457.293213 33.226685 460.960449 36.063354 463.851685 39.589966 C 469.578857 46.950073 471.585938 55.383301 469.873047 64.890015 Z"/>
        <path id="-" fill="#cc0100" fill-rule="evenodd" stroke="none" d="M 0 222 L 40 0 L 361.044922 0 L 337.998047 127.910156 L 337.539063 127.910156 L 319.895508 29.240234 L 297.356445 29.240234 L 262.625 222 L 0 222 Z"/>
        <path id="path7" fill="#ffffff" fill-rule="evenodd" stroke="none" d="M 222.540161 193 L 252.046509 29.23999 L 275.506592 29.23999 L 246.000244 193 Z"/>
        <path id="path8" fill="#ffffff" fill-rule="evenodd" stroke="none" d="M 185.939209 135.72998 L 185.131104 76.390015 L 184.671143 76.390015 L 162.479248 135.72998 Z M 117.660278 193 L 183.736572 29.23999 L 203.286621 29.23999 L 210.35022 193 L 186.890259 193 L 186.330811 157.810059 L 154.36084 157.810059 L 141.120239 193 Z"/>
        <path id="path9" fill="#ffffff" fill-rule="evenodd" stroke="none" d="M 33.020264 193 L 62.526489 29.23999 L 96.796509 29.23999 C 104.309937 29.23999 110.504272 30.390015 115.379883 32.689941 C 120.255493 34.98999 124.034668 38.056641 126.717285 41.890015 C 129.399902 45.723389 131.02063 50.131592 131.579346 55.11499 C 132.138184 60.098389 131.934082 65.273315 130.967041 70.640015 L 129.889648 76.619995 C 129.088379 81.06665 128.066528 84.823364 126.823975 87.890015 C 125.581421 90.956665 124.062866 93.640015 122.268555 95.939941 C 118.888184 100.233398 114.238525 103.91333 108.319336 106.97998 C 113.369751 109.58667 116.74231 113.419922 118.437256 118.47998 C 120.132202 123.540039 120.192261 130.439941 118.617554 139.180054 L 116.959839 148.380005 C 114.362793 162.793457 108.885376 173.833252 100.527222 181.5 C 92.169189 189.166748 80.323608 193 64.990234 193 Z M 70.155884 117.099976 L 60.707275 169.540039 L 70.827271 169.540039 C 75.580566 169.540039 79.423218 168.849976 82.355225 167.469971 C 85.287231 166.089966 87.664185 164.17334 89.486206 161.719971 C 91.30835 159.266602 92.676514 156.353394 93.591064 152.97998 C 94.505493 149.606689 95.321899 145.926636 96.040283 141.939941 C 96.786133 137.799927 97.205444 134.196655 97.297974 131.130005 C 97.390503 128.063354 96.940186 125.456665 95.946899 123.310059 C 94.800415 121.16333 93.013672 119.591675 90.586548 118.594971 C 88.159424 117.598389 84.799316 117.099976 80.505859 117.099976 Z M 82.008179 51.319946 L 73.88562 96.400024 L 84.465698 96.400024 C 92.285645 96.400024 97.889526 94.445068 101.277466 90.535034 C 104.665283 86.625 107.036011 80.91333 108.389771 73.400024 C 109.715942 66.039917 109.215454 60.52002 106.88855 56.839966 C 104.561646 53.160034 99.488159 51.319946 91.668091 51.319946 Z"/>
    </g>
</svg>
