<svg width="830" height="222" viewBox="0 0 830 222" xmlns="http://www.w3.org/2000/svg" xmlns:xlink="http://www.w3.org/1999/xlink" overflow="hidden"><g id="g1"><path d="M0 222 790 222 830 0 40 0Z" id="path1" stroke="none" fill="#FFFFFF" fill-rule="evenodd"/><path d="M286.086 222 309.048 94.5605 309.507 94.5605 327.651 193 349.731 193 384.506 0 830 0 790 222 286.086 222Z" id="path2" stroke="none" fill="#F6BCB7" fill-rule="evenodd"/><path d="M723.56 193 749.088 51.3199 721.948 51.3199 725.927 29.24 798.667 29.24 794.688 51.3199 772.548 51.3199 747.02 193Z" id="BAINSIGHT" stroke="none" fill="#FFFFFF" fill-rule="evenodd"/><path d="M609.17 193 638.677 29.24 662.137 29.24 649.497 99.39 678.477 99.39 691.117 29.24 714.577 29.24 685.07 193 661.61 193 674.747 120.09 645.767 120.09 632.63 193Z" id="path3" stroke="none" fill="#FFFFFF" fill-rule="evenodd"/><path d="M532.354 67.88C533.542 61.2866 535.742 55.4601 538.954 50.4 542.166 45.34 545.992 41.1233 550.433 37.75 554.693 34.53 559.314 32.0767 564.294 30.39 569.275 28.7034 574.142 27.86 578.895 27.86 583.649 27.86 588.212 28.7034 592.584 30.39 596.957 32.0767 600.77 34.53 604.023 37.75 607.095 41.1233 609.326 45.34 610.714 50.4 612.102 55.4601 612.202 61.2866 611.014 67.88L609.522 76.16 586.062 76.16 587.554 67.88C588.577 62.2067 587.758 58.0283 585.098 55.345 582.438 52.6616 578.962 51.3199 574.668 51.3199 570.375 51.3199 566.415 52.6616 562.788 55.345 559.161 58.0283 556.837 62.2067 555.814 67.88L540.232 154.36C539.21 160.033 540.029 164.212 542.689 166.895 545.349 169.578 548.825 170.92 553.119 170.92 557.412 170.92 561.372 169.578 564.999 166.895 568.626 164.212 570.95 160.033 571.972 154.36L577.526 123.54 558.896 123.54 562.625 102.84 604.715 102.84 595.432 154.36C594.189 161.26 591.975 167.163 588.792 172.07 585.607 176.977 581.885 181.04 577.625 184.26 573.184 187.633 568.473 190.163 563.493 191.85 558.512 193.537 553.645 194.38 548.892 194.38 544.138 194.38 539.575 193.537 535.203 191.85 530.83 190.163 527.107 187.633 524.035 184.26 520.782 181.04 518.447 176.977 517.031 172.07 515.615 167.163 515.529 161.26 516.772 154.36Z" id="path4" stroke="none" fill="#FFFFFF" fill-rule="evenodd"/><path d="M464.96 193 494.467 29.24 517.927 29.24 488.42 193Z" id="path5" stroke="none" fill="#FFFFFF" fill-rule="evenodd"/><path d="M467.801 76.39 444.341 76.39 445.294 71.1C446.261 65.7333 445.832 61.095 444.006 57.1851 442.181 53.275 438.278 51.3199 432.298 51.3199 429.078 51.3199 426.361 51.9333 424.147 53.16 421.932 54.3867 420.046 55.92 418.488 57.76 416.902 59.7533 415.651 62.015 414.735 64.545 413.819 67.0751 413.113 69.72 412.616 72.48 412.035 75.7001 411.667 78.3833 411.51 80.53 411.353 82.6766 411.583 84.5934 412.199 86.28 412.815 87.9667 413.894 89.4233 415.437 90.65 416.979 91.8767 419.173 93.1033 422.019 94.33L438.674 101.46C443.528 103.453 447.323 105.792 450.06 108.475 452.797 111.158 454.767 114.263 455.972 117.79 456.995 121.47 457.392 125.648 457.163 130.325 456.934 135.002 456.28 140.33 455.203 146.31 453.959 153.21 452.116 159.612 449.672 165.515 447.229 171.418 444.101 176.44 440.288 180.58 436.294 184.873 431.47 188.247 425.815 190.7 420.159 193.153 413.575 194.38 406.062 194.38 400.388 194.38 395.278 193.383 390.73 191.39 386.183 189.397 382.463 186.637 379.572 183.11 376.681 179.583 374.622 175.482 373.394 170.805 372.167 166.128 372.051 161.03 373.045 155.51L374.62 146.77 398.08 146.77 396.754 154.13C395.98 158.423 396.548 162.295 398.456 165.745 400.364 169.195 404.309 170.92 410.289 170.92 414.275 170.92 417.484 170.345 419.914 169.195 422.345 168.045 424.367 166.397 425.98 164.25 427.594 162.103 428.785 159.535 429.554 156.545 430.322 153.555 431.038 150.22 431.701 146.54 432.475 142.247 432.957 138.72 433.148 135.96 433.338 133.2 433.126 130.977 432.51 129.29 431.74 127.603 430.57 126.223 429 125.15 427.43 124.077 425.299 122.927 422.607 121.7L407.06 114.8C397.686 110.66 391.889 105.178 389.668 98.355 387.448 91.5316 387.263 82.9834 389.114 72.71 390.219 66.5767 392.112 60.75 394.794 55.23 397.475 49.71 400.861 44.9567 404.953 40.97 408.891 36.9833 413.566 33.8016 418.978 31.425 424.39 29.0483 430.545 27.86 437.445 27.86 443.272 27.86 448.407 28.9333 452.85 31.08 457.293 33.2267 460.96 36.0634 463.852 39.59 469.579 46.9501 471.586 55.3833 469.873 64.89Z" id="path6" stroke="none" fill="#FFFFFF" fill-rule="evenodd"/><path d="M0 222 40 0 361.045 0 337.998 127.91 337.539 127.91 319.896 29.2402 297.356 29.2402 262.625 222 0 222Z" id="-" stroke="none" fill="#CC0100" fill-rule="evenodd"/><path d="M222.54 193 252.047 29.24 275.507 29.24 246 193Z" id="path7" stroke="none" fill="#FFFFFF" fill-rule="evenodd"/><path d="M185.939 135.73 185.131 76.39 184.671 76.39 162.479 135.73ZM117.66 193 183.737 29.24 203.287 29.24 210.35 193 186.89 193 186.331 157.81 154.361 157.81 141.12 193Z" id="path8" stroke="none" fill="#FFFFFF" fill-rule="evenodd"/><path d="M33.0203 193 62.5265 29.24 96.7965 29.24C104.31 29.24 110.504 30.39 115.38 32.6899 120.255 34.99 124.035 38.0566 126.717 41.89 129.4 45.7234 131.021 50.1316 131.579 55.115 132.138 60.0984 131.934 65.2733 130.967 70.64L129.89 76.62C129.088 81.0667 128.067 84.8234 126.824 87.89 125.581 90.9567 124.063 93.64 122.269 95.9399 118.888 100.233 114.239 103.913 108.319 106.98 113.37 109.587 116.742 113.42 118.437 118.48 120.132 123.54 120.192 130.44 118.618 139.18L116.96 148.38C114.363 162.793 108.885 173.833 100.527 181.5 92.1692 189.167 80.3236 193 64.9902 193ZM70.1559 117.1 60.7073 169.54 70.8273 169.54C75.5806 169.54 79.4232 168.85 82.3552 167.47 85.2872 166.09 87.6642 164.173 89.4862 161.72 91.3083 159.267 92.6765 156.353 93.5911 152.98 94.5055 149.607 95.3219 145.927 96.0403 141.94 96.7861 137.8 97.2054 134.197 97.298 131.13 97.3905 128.063 96.9402 125.457 95.9469 123.31 94.8004 121.163 93.0137 119.592 90.5865 118.595 88.1594 117.598 84.7993 117.1 80.5059 117.1ZM82.0082 51.3199 73.8856 96.4 84.4657 96.4C92.2856 96.4 97.8895 94.4451 101.277 90.535 104.665 86.625 107.036 80.9133 108.39 73.4 109.716 66.0399 109.215 60.52 106.889 56.84 104.562 53.16 99.4882 51.3199 91.6681 51.3199Z" id="path9" stroke="none" fill="#FFFFFF" fill-rule="evenodd"/></g></svg>